<svg width="69" height="80" viewBox="0 0 69 80" fill="none" xmlns="http://www.w3.org/2000/svg">
<path d="M22.0715 4H4.00269V10.0005H22.0715V4Z" fill="black"/>
<path d="M10.0236 21.9995V4H4V21.9995H10.0236Z" fill="black"/>
<path d="M22.0715 69.9975H4.00269V75.9979H22.0715V69.9975Z" fill="black"/>
<path d="M4.00269 57.9986V75.9981H10.0263V57.9986H4.00269Z" fill="black"/>
<path d="M4.00269 40.0009V52H10.0263V40.0009H4.00269Z" fill="black"/>
<path d="M7.01398 33.8964C8.64849 33.8964 9.97352 32.5766 9.97352 30.9482C9.97352 29.32 8.64849 28.0001 7.01398 28.0001C5.37947 28.0001 4.05444 29.32 4.05444 30.9482C4.05444 32.5766 5.37947 33.8964 7.01398 33.8964Z" fill="black"/>
<path d="M46.1635 76H64.2323V69.9994H46.1635V76Z" fill="black"/>
<path d="M58.209 58.0005V76H64.2325V58.0005H58.209Z" fill="black"/>
<path d="M46.1635 10.0006H64.2323V4.00012H46.1635V10.0006Z" fill="black"/>
<path d="M64.2309 21.9995V4H58.2072V21.9995H64.2309Z" fill="black"/>
<path d="M64.2309 39.9967V27.9978H58.2072V39.9967H64.2309Z" fill="black"/>
<path d="M61.221 51.9979C62.8556 51.9979 64.1806 50.6781 64.1806 49.0497C64.1806 47.4215 62.8556 46.1015 61.221 46.1015C59.5866 46.1015 58.2616 47.4215 58.2616 49.0497C58.2616 50.6781 59.5866 51.9979 61.221 51.9979Z" fill="black"/>
</svg>
