<svg width="160" height="72" viewBox="0 0 160 72" fill="none" xmlns="http://www.w3.org/2000/svg">
<g clip-path="url(#clip0_43_102)">
<mask id="mask0_43_102" style="mask-type:luminance" maskUnits="userSpaceOnUse" x="0" y="0" width="160" height="72">
<path d="M159.851 0H0V71.728H159.851V0Z" fill="white"/>
</mask>
<g mask="url(#mask0_43_102)">
<path d="M18.0011 0H0V5.978H18.0011V0Z" fill="black"/>
<path d="M5.99848 17.932V0H-0.00256348V17.932H5.99848Z" fill="black"/>
<path d="M18.0011 65.7501H0V71.728H18.0011V65.7501Z" fill="black"/>
<path d="M0 53.7962V71.7282H6.00104V53.7962H0Z" fill="black"/>
<path d="M0 35.8659V47.82H6.00104V35.8659H0Z" fill="black"/>
<path d="M3.00007 29.7843C4.62846 29.7843 5.94852 28.4695 5.94852 26.8472C5.94852 25.2251 4.62846 23.9101 3.00007 23.9101C1.3717 23.9101 0.0516357 25.2251 0.0516357 26.8472C0.0516357 28.4695 1.3717 29.7843 3.00007 29.7843Z" fill="black"/>
<path d="M42.0028 71.7301H60.0039V65.752H42.0028V71.7301Z" fill="black"/>
<path d="M54.0033 53.7981V71.7301H60.0043V53.7981H54.0033Z" fill="black"/>
<path d="M42.0028 5.97812H60.0039V0.00012207H42.0028V5.97812Z" fill="black"/>
<path d="M60.0025 17.932V0H54.0013V17.932H60.0025Z" fill="black"/>
<path d="M60.0025 35.8618V23.9078H54.0013V35.8618H60.0025Z" fill="black"/>
<path d="M57.0039 47.8179C58.6323 47.8179 59.9523 46.503 59.9523 44.8808C59.9523 43.2587 58.6323 41.9437 57.0039 41.9437C55.3755 41.9437 54.0555 43.2587 54.0555 44.8808C54.0555 46.503 55.3755 47.8179 57.0039 47.8179Z" fill="black"/>
<path d="M77.3525 37.0813C75.8662 37.0813 74.7045 36.673 73.8672 35.8562C73.0299 35.0394 72.612 33.8821 72.6133 32.3843C72.6133 30.8438 72.9998 29.6533 73.773 28.8126C74.5462 27.972 75.6144 27.5509 76.9779 27.5496C78.2811 27.5496 79.2966 27.9194 80.0245 28.659C80.7522 29.3986 81.1181 30.421 81.1221 31.7258V32.943H75.1651C75.1906 33.6547 75.4021 34.2107 75.8002 34.611C76.1981 35.0115 76.7536 35.211 77.4666 35.2096C77.9976 35.2122 78.527 35.1546 79.045 35.0381C79.5795 34.9083 80.099 34.7238 80.5954 34.4874V36.4269C80.1509 36.6488 79.6797 36.8131 79.1933 36.9157C78.587 37.0349 77.9701 37.0904 77.3525 37.0813ZM76.9979 29.3314C76.7642 29.3194 76.5306 29.3585 76.3136 29.4461C76.0965 29.5336 75.9014 29.6675 75.7421 29.8382C75.4126 30.2453 75.2294 30.7502 75.2213 31.273H78.7546C78.7451 30.6544 78.5829 30.1761 78.2678 29.8382C78.105 29.668 77.9074 29.5347 77.6882 29.4472C77.4691 29.3598 77.2336 29.3203 76.9979 29.3314Z" fill="black"/>
<path d="M91.1772 36.9134H88.6573V31.5461C88.6573 30.8837 88.5391 30.3848 88.3028 30.0536C88.0665 29.7224 87.6898 29.5568 87.1732 29.5568C86.4681 29.5568 85.9586 29.7909 85.6449 30.259C85.3309 30.7274 85.1741 31.5048 85.1741 32.5917V36.9134H82.6564V27.723H84.5793L84.9177 28.8982H85.058C85.337 28.4565 85.7404 28.1061 86.2177 27.8906C86.7461 27.6558 87.3197 27.5394 87.8981 27.5494C88.9665 27.5494 89.781 27.8387 90.3418 28.4174C90.9028 28.996 91.1812 29.8328 91.1772 30.9275V36.9134Z" fill="black"/>
<path d="M99.1231 36.9134L98.6363 35.6643H98.5701C98.2256 36.1291 97.7771 36.5075 97.2602 36.7698C96.704 36.9957 96.1058 37.1011 95.5056 37.079C94.6202 37.079 93.9232 36.8269 93.4144 36.3227C92.9056 35.8186 92.6506 35.1003 92.6493 34.1678C92.6493 33.1928 92.9925 32.4731 93.6787 32.0088C94.3651 31.5446 95.3981 31.2885 96.7775 31.2406L98.3799 31.1907V30.7917C98.3799 29.8605 97.9011 29.395 96.9437 29.395C96.2047 29.395 95.3413 29.6165 94.3398 30.0614L93.5066 28.3674C94.5989 27.8061 95.8128 27.5203 97.0419 27.5354C98.2797 27.5354 99.2291 27.8014 99.8901 28.3334C100.551 28.8656 100.882 29.6822 100.882 30.7837V36.9134H99.1231ZM98.3799 32.6533L97.4043 32.6872C96.6727 32.7085 96.1279 32.8416 95.7699 33.0864C95.5927 33.2082 95.4501 33.3736 95.356 33.5666C95.2619 33.7597 95.2195 33.9736 95.2331 34.1877C95.2331 34.8954 95.6411 35.2493 96.457 35.2493C96.7125 35.2622 96.968 35.2245 97.2088 35.1382C97.4495 35.0518 97.6706 34.9187 97.8591 34.7464C98.0354 34.5738 98.1733 34.3659 98.2637 34.1366C98.3541 33.9074 98.395 33.6616 98.3838 33.4155L98.3799 32.6533Z" fill="black"/>
<path d="M114.058 34.1861C114.058 35.1291 113.729 35.8475 113.072 36.341C112.415 36.8346 111.431 37.0813 110.12 37.0813C109.545 37.089 108.97 37.0435 108.403 36.9456C107.947 36.8606 107.501 36.7267 107.073 36.5466V34.4734C107.582 34.7069 108.112 34.8914 108.656 35.0242C109.16 35.1621 109.679 35.2371 110.202 35.2475C111.115 35.2475 111.574 34.9841 111.574 34.4494C111.577 34.3613 111.563 34.2733 111.532 34.1907C111.5 34.1082 111.453 34.0326 111.392 33.9686C111.204 33.7997 110.993 33.6586 110.765 33.5496C110.466 33.3912 110.069 33.209 109.575 33.0029C109.023 32.7906 108.498 32.5147 108.011 32.1808C107.701 31.9547 107.451 31.6568 107.284 31.3128C107.124 30.9342 107.046 30.5261 107.057 30.1155C107.042 29.7451 107.122 29.377 107.289 29.0456C107.456 28.7141 107.704 28.4301 108.011 28.22C108.648 27.7731 109.547 27.5496 110.715 27.5496C111.837 27.5518 112.944 27.799 113.96 28.2739L113.201 30.0816C112.738 29.8821 112.305 29.7225 111.903 29.5968C111.505 29.4678 111.09 29.4006 110.673 29.3973C109.93 29.3973 109.559 29.5968 109.559 29.9958C109.564 30.1157 109.6 30.2322 109.662 30.3344C109.725 30.4366 109.813 30.5214 109.917 30.5805C110.419 30.8702 110.945 31.1154 111.49 31.3128C112.05 31.5179 112.583 31.7914 113.076 32.1269C113.39 32.3542 113.645 32.6531 113.819 32.9989C113.988 33.3715 114.07 33.7774 114.058 34.1861Z" fill="black"/>
<path d="M121.956 34.1858C121.956 35.129 121.627 35.8472 120.968 36.3408C120.31 36.8342 119.327 37.081 118.018 37.081C117.442 37.0886 116.867 37.0432 116.299 36.9453C115.844 36.8603 115.398 36.7266 114.971 36.5462V34.4731C115.479 34.7067 116.009 34.891 116.552 35.0238C117.057 35.1618 117.577 35.2368 118.1 35.2474C119.014 35.2474 119.47 34.9813 119.47 34.4491C119.474 34.361 119.46 34.2728 119.428 34.1901C119.397 34.1075 119.349 34.032 119.288 33.9683C119.101 33.7984 118.89 33.6573 118.661 33.5493C118.365 33.391 117.969 33.2088 117.473 33.0026C116.921 32.7907 116.396 32.5147 115.909 32.1805C115.597 31.96 115.345 31.6667 115.174 31.3264C115.013 30.9483 114.935 30.5398 114.947 30.1293C114.931 29.7587 115.011 29.3901 115.178 29.0584C115.344 28.7267 115.593 28.4429 115.901 28.2338C116.536 27.7867 117.437 27.5634 118.603 27.5634C119.725 27.5654 120.832 27.8128 121.848 28.2875L121.089 30.0954C120.626 29.8958 120.193 29.7362 119.793 29.6106C119.395 29.4818 118.981 29.4144 118.563 29.4109C117.82 29.4109 117.447 29.6106 117.447 30.0096C117.452 30.1296 117.488 30.2462 117.551 30.3485C117.614 30.4509 117.702 30.5354 117.808 30.5942C118.309 30.8843 118.835 31.1294 119.38 31.3264C119.94 31.531 120.472 31.8045 120.964 32.1406C121.279 32.3672 121.534 32.6664 121.708 33.0125C121.879 33.3798 121.964 33.781 121.956 34.1858Z" fill="black"/>
<path d="M129.275 36.9136L128.794 35.6666H128.728C128.383 36.1314 127.935 36.5098 127.418 36.772C126.862 36.9979 126.264 37.1034 125.663 37.0813C124.778 37.0813 124.081 36.8291 123.572 36.325C123.063 35.8208 122.808 35.1026 122.807 34.1701C122.807 33.195 123.15 32.4754 123.837 32.011C124.523 31.5469 125.556 31.2907 126.935 31.2429L128.538 31.193V30.7939C128.538 29.8627 128.059 29.3973 127.102 29.3973C126.362 29.3973 125.499 29.6187 124.498 30.0637L123.664 28.3696C124.754 27.809 125.965 27.5226 127.192 27.5355C128.43 27.5355 129.379 27.8016 130.04 28.3338C130.701 28.8658 131.031 29.6826 131.031 30.784V36.9136H129.275ZM128.532 32.6536L127.556 32.6875C126.825 32.7088 126.28 32.8418 125.922 33.0866C125.745 33.2085 125.602 33.3739 125.508 33.5669C125.414 33.7598 125.371 33.9739 125.385 34.188C125.385 34.8963 125.786 35.2494 126.607 35.2494C126.862 35.2624 127.118 35.2246 127.358 35.1382C127.599 35.052 127.82 34.9189 128.009 34.7467C128.185 34.5738 128.323 34.3659 128.413 34.1366C128.503 33.9074 128.545 33.6619 128.534 33.4158L128.532 32.6536Z" fill="black"/>
<path d="M141.637 36.9136H139.12V31.5461C139.12 30.8837 139.001 30.3848 138.765 30.0536C138.529 29.7224 138.15 29.5568 137.633 29.5568C136.928 29.5568 136.419 29.7909 136.105 30.2591C135.791 30.7274 135.634 31.5048 135.634 32.5917V36.9136H133.117V27.7231H135.041L135.38 28.8982H135.52C135.798 28.4557 136.202 28.105 136.68 27.8907C137.208 27.6557 137.782 27.5392 138.36 27.5494C139.429 27.5494 140.243 27.8387 140.804 28.4175C141.365 28.996 141.643 29.8328 141.637 30.9275V36.9136Z" fill="black"/>
<path d="M147.47 37.081C144.598 37.081 143.162 35.5101 143.162 32.368C143.162 30.8051 143.552 29.6112 144.334 28.7864C145.115 27.9618 146.235 27.5493 147.693 27.5493C148.686 27.5326 149.671 27.7466 150.567 28.1739L149.826 30.1154C149.425 29.9557 149.056 29.8227 148.718 29.7163C148.386 29.616 148.041 29.565 147.695 29.5646C146.385 29.5646 145.73 30.491 145.73 32.3442C145.73 34.1426 146.385 35.0418 147.695 35.0418C148.151 35.0443 148.605 34.9771 149.041 34.8422C149.479 34.7016 149.896 34.5 150.279 34.2437V36.3906C149.9 36.6358 149.483 36.8165 149.045 36.9254C148.527 37.0365 147.999 37.0886 147.47 37.081Z" fill="black"/>
<path d="M156.085 37.0813C154.599 37.0813 153.438 36.673 152.602 35.8562C151.766 35.0394 151.347 33.8821 151.346 32.3843C151.346 30.8438 151.733 29.6533 152.506 28.8126C153.279 27.972 154.347 27.5509 155.711 27.5496C157.014 27.5496 158.029 27.9194 158.755 28.659C159.482 29.3986 159.847 30.421 159.851 31.7258V32.943H153.898C153.926 33.6553 154.136 34.212 154.533 34.611C154.93 35.0101 155.487 35.2096 156.202 35.2096C156.732 35.212 157.261 35.1544 157.778 35.0381C158.313 34.9083 158.833 34.7238 159.33 34.4873V36.4269C158.882 36.6485 158.408 36.812 157.918 36.9136C157.315 37.0329 156.7 37.0891 156.085 37.0813ZM155.731 29.3314C155.497 29.3194 155.263 29.3585 155.047 29.4461C154.829 29.5336 154.634 29.6675 154.475 29.8382C154.146 30.2454 153.964 30.7504 153.956 31.273H157.489C157.477 30.6544 157.315 30.1761 157.003 29.8382C156.839 29.6681 156.641 29.535 156.422 29.4475C156.203 29.3601 155.967 29.3205 155.731 29.3314Z" fill="black"/>
<path d="M79.1772 53.7581H76.6594V48.3886C76.6594 47.7262 76.5391 47.2273 76.3028 46.8962C76.0665 46.5649 75.6898 46.3993 75.1732 46.3993C74.4681 46.3993 73.9586 46.6334 73.6449 47.1016C73.3309 47.5699 73.1741 48.3467 73.1741 49.4321V53.7581H70.6564V44.5656H72.5812L72.9197 45.7408H73.0599C73.338 45.2982 73.7417 44.9475 74.2197 44.7333C74.7474 44.4984 75.3204 44.3819 75.8981 44.392C76.9665 44.392 77.781 44.6813 78.3418 45.26C78.9028 45.8385 79.1812 46.6733 79.1772 47.7641V53.7581Z" fill="black"/>
<path d="M89.7813 53.7581H87.2635V48.3886C87.2635 47.7262 87.1455 47.2274 86.909 46.8962C86.6727 46.565 86.2941 46.3994 85.7773 46.3994C85.0722 46.3994 84.5635 46.6334 84.251 47.1018C83.9386 47.5699 83.7816 48.3467 83.7803 49.4322V53.7581H81.2626V44.5656H83.1854L83.5239 45.7408H83.6642C83.9423 45.2982 84.3458 44.9475 84.8239 44.7333C85.3522 44.4982 85.9259 44.3818 86.5043 44.392C87.5727 44.392 88.3872 44.6813 88.9482 45.26C89.509 45.8387 89.7867 46.6734 89.7813 47.7642V53.7581Z" fill="black"/>
<path d="M100.253 49.1448C100.253 50.6413 99.857 51.812 99.0651 52.6566C98.2733 53.5013 97.1696 53.9237 95.7541 53.9237C94.9351 53.9403 94.1263 53.74 93.4106 53.343C92.7339 52.9578 92.1901 52.3776 91.8503 51.6789C91.4717 50.8885 91.2851 50.0205 91.3055 49.1448C91.3055 47.6418 91.6987 46.4738 92.4851 45.6411C93.2717 44.8083 94.3781 44.392 95.8042 44.392C96.6224 44.3752 97.4307 44.5734 98.1477 44.9667C98.8231 45.3491 99.3667 45.9256 99.708 46.6208C100.087 47.4075 100.274 48.2725 100.253 49.1448ZM93.8712 49.1448C93.8712 50.0547 94.0215 50.743 94.3219 51.2101C94.6224 51.677 95.1112 51.9098 95.7882 51.9083C96.4559 51.9083 96.9386 51.677 97.2363 51.2141C97.5341 50.751 97.6816 50.0614 97.6791 49.1448C97.6791 48.235 97.5301 47.5526 97.2323 47.0976C96.9359 46.6427 96.4472 46.4152 95.7701 46.4152C95.0931 46.4152 94.6144 46.6408 94.3179 47.0936C94.0215 47.5466 93.8712 48.229 93.8712 49.1448Z" fill="black"/>
<path d="M104.023 53.7581L100.505 44.5656H103.139L104.922 49.8034C105.111 50.4168 105.236 51.048 105.295 51.6869H105.345C105.393 51.0467 105.517 50.4144 105.715 49.8034L107.49 44.5656H110.124L106.607 53.7581H104.023Z" fill="black"/>
<path d="M116.798 53.7579L116.311 52.5088H116.245C115.901 52.9739 115.453 53.3525 114.937 53.6142C114.381 53.8403 113.782 53.9458 113.182 53.9235C112.297 53.9235 111.599 53.6713 111.089 53.1673C110.579 52.6632 110.325 51.9448 110.326 51.0123C110.326 50.0373 110.668 49.3176 111.353 48.8534C112.038 48.3891 113.072 48.1337 114.454 48.0872L116.057 48.0373V47.6382C116.057 46.707 115.577 46.2414 114.618 46.2414C113.881 46.2414 113.013 46.4637 112.014 46.908L111.181 45.2139C112.273 44.6526 113.486 44.3677 114.714 44.3838C115.952 44.3838 116.902 44.6499 117.563 45.1819C118.224 45.7141 118.554 46.5309 118.552 47.6323V53.7579H116.798ZM116.057 49.4979L115.081 49.5318C114.351 49.5531 113.806 49.6861 113.447 49.9309C113.269 50.0526 113.127 50.2182 113.033 50.4112C112.938 50.6041 112.896 50.8181 112.91 51.0323C112.91 51.7385 113.31 52.0938 114.132 52.0938C114.387 52.1064 114.642 52.0683 114.883 51.9821C115.124 51.8958 115.345 51.7629 115.534 51.591C115.71 51.4181 115.847 51.2102 115.938 50.9809C116.028 50.7517 116.069 50.5061 116.058 50.2601L116.057 49.4979Z" fill="black"/>
<path d="M124.532 51.9243C125.071 51.9069 125.605 51.8101 126.116 51.6371V53.5046C125.384 53.804 124.596 53.9467 123.805 53.9237C122.797 53.9237 122.062 53.6702 121.601 53.1635C121.141 52.6566 120.912 51.8958 120.914 50.8808V46.4472H119.713V45.3877L121.099 44.5477L121.826 42.6082H123.428V44.5656H126.014V46.4472H123.432V50.8808C123.419 51.028 123.439 51.1762 123.492 51.3144C123.544 51.4526 123.627 51.5773 123.735 51.6789C123.962 51.8539 124.245 51.9411 124.532 51.9243Z" fill="black"/>
<path d="M140.514 49.1448C140.514 50.6413 140.118 51.812 139.326 52.6566C138.534 53.5013 137.431 53.9237 136.015 53.9237C135.196 53.9403 134.387 53.74 133.672 53.343C132.995 52.9578 132.451 52.3776 132.111 51.6789C131.733 50.8885 131.546 50.0205 131.566 49.1448C131.566 47.6418 131.96 46.4738 132.746 45.6411C133.533 44.8083 134.639 44.392 136.065 44.392C136.883 44.3752 137.692 44.5734 138.409 44.9667C139.084 45.3491 139.628 45.9256 139.969 46.6208C140.348 47.4075 140.535 48.2725 140.514 49.1448ZM134.132 49.1448C134.132 50.0547 134.282 50.743 134.583 51.2101C134.883 51.677 135.372 51.9098 136.049 51.9083C136.717 51.9083 137.2 51.677 137.497 51.2141C137.795 50.751 137.943 50.0614 137.94 49.1448C137.94 48.235 137.791 47.5526 137.493 47.0976C137.196 46.6427 136.708 46.4152 136.031 46.4152C135.363 46.4152 134.879 46.6414 134.579 47.0936C134.278 47.5459 134.13 48.2296 134.132 49.1448Z" fill="black"/>
<path d="M150.606 53.7581H148.088V48.3886C148.088 47.7262 147.97 47.2273 147.734 46.8962C147.498 46.5649 147.121 46.3993 146.602 46.3993C145.897 46.3993 145.388 46.6334 145.076 47.1016C144.764 47.5699 144.607 48.3467 144.605 49.4321V53.7581H142.088V44.5656H144.016L144.355 45.7408H144.495C144.773 45.2982 145.177 44.9475 145.655 44.7333C146.183 44.4984 146.757 44.3819 147.335 44.392C148.404 44.392 149.218 44.6813 149.779 45.26C150.34 45.8385 150.618 46.6733 150.612 47.7641L150.606 53.7581Z" fill="black"/>
<path d="M80.321 71.5643L79.8343 70.3131H79.7682C79.4244 70.7784 78.9766 71.1576 78.4602 71.4207C77.9039 71.6459 77.3057 71.7506 76.7057 71.7278C75.8177 71.7278 75.1199 71.4759 74.6124 70.9717C74.105 70.4675 73.8506 69.7491 73.8494 68.8166C73.8494 67.8416 74.1918 67.1219 74.8769 66.6578C75.5618 66.1934 76.5948 65.9375 77.9756 65.8896L79.578 65.8397V65.4406C79.578 64.5094 79.0993 64.0439 78.1418 64.0439C77.4047 64.0439 76.5367 64.2661 75.5378 64.7103L74.7126 63.0103C75.8047 62.4504 77.0178 62.1654 78.246 62.1802C79.4852 62.1802 80.4345 62.4463 81.0942 62.9784C81.7538 63.5104 82.0878 64.3272 82.0958 65.4286V71.5563L80.321 71.5643ZM79.578 67.3042L78.6044 67.3362C77.8713 67.3574 77.3265 67.4904 76.97 67.7352C76.7924 67.8571 76.6497 68.0229 76.5558 68.2163C76.462 68.4098 76.4206 68.6243 76.4351 68.8386C76.4351 69.5463 76.8425 69.9002 77.657 69.9002C77.9124 69.913 78.1678 69.8754 78.4084 69.7895C78.649 69.7034 78.8702 69.5709 79.0591 69.3994C79.2354 69.2261 79.3732 69.0179 79.4636 68.7883C79.554 68.5587 79.595 68.3128 79.5839 68.0664L79.578 67.3042Z" fill="black"/>
<path d="M89.2998 62.1963C89.7994 62.1778 90.2954 62.2843 90.7426 62.5064C91.1899 62.7285 91.5741 63.0589 91.8597 63.4674C92.4766 64.3133 92.7851 65.4746 92.7851 66.9512C92.7851 68.469 92.4674 69.6448 91.8317 70.4789C91.5326 70.8826 91.139 71.2074 90.6853 71.4251C90.2314 71.6427 89.731 71.7467 89.2278 71.728C88.1435 71.728 87.2936 71.3362 86.6779 70.5528H86.5037L86.083 71.5643H84.1602V59.8599H86.6779V61.7554C86.6779 62.1325 86.6438 62.7391 86.5778 63.5711H86.6779C87.2709 62.6546 88.1448 62.1963 89.2998 62.1963ZM88.4987 64.2035C87.875 64.2035 87.4211 64.3938 87.1366 64.7743C86.8502 65.1554 86.7 65.7859 86.6899 66.6618V66.9333C86.6899 67.9216 86.8368 68.6293 87.1306 69.0562C87.4245 69.4832 87.8918 69.6968 88.5328 69.6968C88.7834 69.6991 89.0301 69.6343 89.247 69.5093C89.464 69.3845 89.6435 69.2039 89.7666 68.9864C90.0725 68.5115 90.2253 67.8218 90.2253 66.9173C90.2253 66.0127 90.071 65.3343 89.7626 64.8821C89.6288 64.6683 89.4411 64.4933 89.2184 64.3743C88.9955 64.2552 88.7454 64.1965 88.4926 64.2035H88.4987Z" fill="black"/>
<path d="M100.798 68.8386C100.798 69.7818 100.469 70.5 99.8103 70.9936C99.152 71.487 98.1685 71.7338 96.8599 71.7338C96.2847 71.7414 95.7101 71.696 95.1432 71.5981C94.6868 71.5134 94.2408 71.3795 93.8133 71.199V69.1219C94.3213 69.3552 94.8504 69.5395 95.3936 69.6726C95.8988 69.809 96.4188 69.8834 96.942 69.8941C97.8554 69.8941 98.312 69.628 98.312 69.096C98.3157 69.0078 98.3016 68.92 98.2706 68.8374C98.2397 68.7549 98.1925 68.6794 98.1319 68.615C97.9437 68.4458 97.7317 68.3046 97.5029 68.1962C97.2064 68.0405 96.8098 67.857 96.3151 67.6494C95.7607 67.444 95.2327 67.1734 94.7428 66.8432C94.4325 66.6178 94.1829 66.3197 94.0156 65.9754C93.8554 65.5968 93.7781 65.1886 93.7893 64.7781C93.7746 64.4077 93.8543 64.0395 94.021 63.708C94.1877 63.3766 94.436 63.0926 94.7428 62.8826C95.377 62.4355 96.2783 62.2122 97.4468 62.2122C98.5679 62.2141 99.6749 62.4614 100.69 62.9365L99.9306 64.7462C99.4679 64.5466 99.0372 64.387 98.6346 64.2594C98.2367 64.1344 97.822 64.0712 97.4047 64.0717C96.6623 64.0717 96.2911 64.2714 96.2911 64.6704C96.296 64.7898 96.3316 64.9061 96.3944 65.008C96.4572 65.1101 96.545 65.1942 96.6496 65.253C97.1504 65.544 97.6767 65.7891 98.222 65.9853C98.7813 66.1915 99.3133 66.4648 99.8063 66.7994C100.121 67.0259 100.376 67.3251 100.549 67.6714C100.72 68.0368 100.805 68.4358 100.798 68.8386Z" fill="black"/>
<path d="M72.0063 27.7231V30.1234H68.523V36.9155H66.0033V27.7231H72.0063Z" fill="black"/>
<path d="M72.5511 71.5586V69.1602H68.5251V59.8499H66.0033V71.5586H72.5511Z" fill="black"/>
<path d="M68.523 53.7581H66.0033V44.5656H68.523V53.7581Z" fill="black"/>
<path d="M67.2632 43.4701C68.0221 43.4701 68.6373 42.8778 68.6373 42.147C68.6373 41.4165 68.0221 40.8242 67.2632 40.8242C66.5044 40.8242 65.8892 41.4165 65.8892 42.147C65.8892 42.8778 66.5044 43.4701 67.2632 43.4701Z" fill="black"/>
<path d="M129.995 53.7581H127.474V44.5656H129.995V53.7581Z" fill="black"/>
<path d="M128.733 43.4701C129.492 43.4701 130.108 42.8778 130.108 42.147C130.108 41.4165 129.492 40.8242 128.733 40.8242C127.975 40.8242 127.359 41.4165 127.359 42.147C127.359 42.8778 127.975 43.4701 128.733 43.4701Z" fill="black"/>
<path d="M105.485 36.9136H102.967V27.7231H105.485V36.9136Z" fill="black"/>
<path d="M104.225 26.6275C104.984 26.6275 105.599 26.0352 105.599 25.3045C105.599 24.5739 104.984 23.9816 104.225 23.9816C103.466 23.9816 102.851 24.5739 102.851 25.3045C102.851 26.0352 103.466 26.6275 104.225 26.6275Z" fill="black"/>
</g>
</g>
<defs>
<clipPath id="clip0_43_102">
<rect width="160" height="72" fill="white"/>
</clipPath>
</defs>
</svg>
